<svg width="24" height="24" viewBox="0 0 24 24" fill="none" xmlns="http://www.w3.org/2000/svg">
  <path fill-rule="evenodd" clip-rule="evenodd" d="M17.9998 8.99996L20.9998 12C21.2713 12.2348 21.3011 12.6453 21.0663 12.9168C20.8316 13.1884 20.4211 13.2182 20.1495 12.9834L18.9998 11.8336V19.7C18.9998 20.418 18.4178 21 17.6998 21H14.4992C13.7811 21 13.1991 20.4179 13.1992 19.6999L13.1998 14.3H10.7998V19.7C10.7998 20.418 10.2178 21 9.49979 21H6.29979C5.58182 21 4.99979 20.418 4.99979 19.7V11.8336L3.85004 12.9834C3.57849 13.2182 3.16801 13.1884 2.93322 12.9168C2.69843 12.6453 2.72823 12.2348 2.99978 12L5.99979 8.99996L11.0805 3.91921C11.5882 3.41153 12.4113 3.41153 12.919 3.91921L17.9998 8.99996ZM17.6998 19.7H14.4998V14.3C14.4998 13.582 13.9178 13 13.1998 13H10.7998C10.0818 13 9.49979 13.582 9.49979 14.3V19.7H6.29979V10.5385L11.9998 4.83845L17.6998 10.5385V19.7Z" fill="currentColor"/>
</svg>
