<svg width="50" height="43" viewBox="0 0 50 43" fill="none" xmlns="http://www.w3.org/2000/svg">
<g clip-path="url(#clip0_1_32)">
<ellipse cx="30.14" cy="20.9867" rx="13.3323" ry="13.3323" fill="#b5ffff"/>
<mask id="mask0_1_32" style="mask-type:alpha" maskUnits="userSpaceOnUse" x="16" y="7" width="28" height="28">
<ellipse cx="30.14" cy="20.9867" rx="13.3323" ry="13.3323" fill="#F6C244"/>
</mask>
<g mask="url(#mask0_1_32)">
</g>
<path d="M33.4426 6.12197H27.2272C26.7436 6.12197 26.528 5.48339 26.8851 5.15731C28.3072 3.85898 29.0564 2.5158 29.6306 0.646235C29.7937 0.115108 30.7023 0.13489 30.8613 0.667246C31.4369 2.5938 32.308 3.87061 33.7783 5.19386C34.1314 5.51168 33.9177 6.12197 33.4426 6.12197Z" fill="#b5ffff"/>
<path d="M27.1438 35.8514H33.3592C33.8428 35.8514 34.0584 36.49 33.7013 36.8161C32.2792 38.1144 31.53 39.4576 30.9558 41.3272C30.7927 41.8583 29.8841 41.8385 29.7251 41.3062C29.1495 39.3796 28.2784 38.1028 26.8081 36.7796C26.455 36.4617 26.6687 35.8514 27.1438 35.8514Z" fill="#b5ffff"/>
<path d="M38.6508 33.782L42.9515 29.2948C43.2861 28.9456 43.8963 29.2318 43.8846 29.7153C43.838 31.6403 44.2893 33.1106 45.2417 34.8188C45.5123 35.304 44.8694 35.9463 44.375 35.6928C42.5858 34.7753 41.0613 34.5207 39.0886 34.6666C38.6148 34.7016 38.3221 34.125 38.6508 33.782Z" fill="#b5ffff"/>
<path d="M17.2373 29.2346L21.5376 33.7221C21.8723 34.0713 21.5604 34.6688 21.0778 34.6366C19.1565 34.5081 17.6684 34.8965 15.9213 35.7755C15.4249 36.0252 14.8106 35.3555 15.0849 34.8724C16.0776 33.1238 16.3968 31.6115 16.3349 29.6344C16.3201 29.1596 16.9086 28.8916 17.2373 29.2346Z" fill="#b5ffff"/>
<path d="M43.3192 12.7731L38.7549 8.55438C38.3997 8.22611 38.6748 7.61082 39.1585 7.61378C41.084 7.62559 42.5459 7.14774 44.2365 6.1645C44.7168 5.88518 45.3706 6.51641 45.1261 7.01531C44.2411 8.82078 44.0142 10.3497 44.1957 12.3194C44.2393 12.7925 43.6681 13.0956 43.3192 12.7731Z" fill="#b5ffff"/>
<path d="M21.5732 8.49745L17.0091 12.7164C16.654 13.0447 16.0622 12.7222 16.1031 12.2403C16.2661 10.3216 15.9045 8.82667 15.057 7.06406C14.8163 6.56332 15.4969 5.96111 15.975 6.24406C17.7055 7.26806 19.2118 7.61435 21.1897 7.58804C21.6647 7.58172 21.922 8.17496 21.5732 8.49745Z" fill="#b5ffff"/>
<path d="M45.0047 23.6764V17.461C45.0047 16.9774 45.6433 16.7618 45.9694 17.1189C47.2677 18.541 48.6109 19.2902 50.4804 19.8644C51.0116 20.0275 50.9918 20.9361 50.4594 21.0951C48.5329 21.6707 47.2561 22.5418 45.9328 24.0121C45.615 24.3652 45.0047 24.1515 45.0047 23.6764Z" fill="#b5ffff"/>
<path d="M15.122 17.3776V23.593C15.122 24.0766 14.4834 24.2922 14.1573 23.935C12.859 22.513 11.5158 21.7637 9.64623 21.1896C9.11511 21.0265 9.13489 20.1179 9.66725 19.9588C11.5938 19.3833 12.8706 18.5121 14.1939 17.0419C14.5117 16.6888 15.122 16.9025 15.122 17.3776Z" fill="#b5ffff"/>
<circle cx="18.3667" cy="24.7334" r="14.3667" fill="#DEDEDE"/>
<ellipse cx="9.72007" cy="23.5362" rx="2.26142" ry="2.52747" fill="#C4C4C4"/>
<ellipse cx="19.83" cy="26.3297" rx="2.26142" ry="2.92655" fill="#C4C4C4"/>
<circle cx="14.3759" cy="29.5223" r="2.39445" fill="#C4C4C4"/>
<ellipse cx="25.135" cy="32.7841" rx="1.5963" ry="1.72932" fill="#C4C4C4"/>
<path d="M12.7796 19.9502H13.8601M17.4418 14.0914H18.4209M22.1041 15.7076H23.9284M24.7392 18.9401H27.1038M22.9149 22.0715H24.1645M15.0094 23.9907H16.8337M8.52284 29.3445H9.2992M18.1513 32.9809H19.401" stroke="#C4C4C4" stroke-linecap="round" stroke-linejoin="round"/>
<ellipse cx="19.6969" cy="19.1463" rx="2.1284" ry="1.86235" fill="#C4C4C4"/>
<mask id="mask1_1_32" style="mask-type:alpha" maskUnits="userSpaceOnUse" x="4" y="10" width="29" height="30">
<circle cx="18.3667" cy="24.7334" r="14.3667" fill="#E7E7E7"/>
</mask>
<g mask="url(#mask1_1_32)">
<ellipse cx="13.0457" cy="37.6368" rx="4.52285" ry="4.38982" fill="#C4C4C4"/>
<ellipse cx="9.58705" cy="13.6923" rx="3.99075" ry="3.32562" fill="#C4C4C4"/>
<ellipse cx="31.2701" cy="26.7288" rx="4.92192" ry="5.18797" fill="#C4C4C4"/>
</g>
</g>
<defs>
<clipPath id="clip0_1_32">
<rect width="50" height="42.3469" fill="white"/>
</clipPath>
</defs>
</svg>
