<svg width="667" height="433" viewBox="0 0 667 433" fill="none" xmlns="http://www.w3.org/2000/svg">
  <path d="M134.6 203.4h128.6m201.3-18.2h134.3M374 192.7h28m-349.8 7.7h1v-6.8h3.4v-1h-3.4v-14.4h-.6l-10.7 14.9v.5h10.3v6.8Zm-8.8-7.8 7-9.7 1.8-2.7h.1v12.4h-8.9Zm22.6 8.2c4 0 6.4-4.2 6.4-11.5 0-7.4-2.3-11.5-6.5-11.5-4.1 0-6.4 4.1-6.4 11.5 0 7.3 2.3 11.5 6.4 11.5Zm0-1c-3.3 0-5.4-3.7-5.4-10.5 0-7 2-10.5 5.3-10.5s5.4 3.6 5.4 10.5c0 6.8-2.1 10.6-5.4 10.6Zm19 .6h1v-6.8h3.4v-1H86v-14.4h-.7l-10.6 14.9v.5h10.2v6.8Zm-8.9-7.8 7-9.7 1.8-2.7h.2l-.2 3.7v8.7h-8.8ZM351.4 86.8h.9V81h2.9v-.8h-3V68h-.5l-9 12.5v.5h8.7v5.8Zm-7.4-6.6 5.9-8.3 1.5-2.2h.1v10.5H344Zm19 6.9c3.5 0 5.5-3.6 5.5-9.8 0-6.2-2-9.7-5.5-9.7s-5.4 3.5-5.4 9.7c0 6.2 1.9 9.8 5.4 9.8Zm0-.8c-2.7 0-4.5-3.2-4.5-9s1.8-8.8 4.5-8.8c2.8 0 4.5 3 4.5 8.8 0 5.8-1.7 9-4.5 9Zm16.1.5h.9V81h2.9v-.8h-3V68h-.5l-9 12.5v.5h8.7v5.8Zm-7.5-6.6 6-8.3 1.5-2.2h.1l-.1 3.1v7.4h-7.5Zm-178.2 46.5v6a3.8 3.8 0 0 1-7.5 0v-6a9.2 9.2 0 1 0 7.5 0Z" stroke="#DE8342" stroke-width="1.3" stroke-miterlimit="10"/>
  <path d="M189.3 144.2a9 9 0 0 1-3.3-.7v39.7a3.7 3.7 0 1 0 7.4 0v-39.7c-1.3.5-2.6.8-4 .7Zm69 26h-23.7a3.7 3.7 0 0 0 0 7.4h23.7v-7.4Zm0 3.7h22.5m0 2.2v-4.4l10.3.7v3l-10.3.7Zm45.4-30.8v31c.1 2 1 4 2.3 5.4l.2.2a3.5 3.5 0 0 0 5 0 3.5 3.5 0 0 1 4.8 0 3.5 3.5 0 0 0 5 0 3.5 3.5 0 0 1 4.8 0 3.5 3.5 0 0 0 5 0 3.5 3.5 0 0 1 4.8 0 3.5 3.5 0 0 0 4.9 0 7.7 7.7 0 0 0 2.3-5.4v-31.2a19.5 19.5 0 1 0-39 0Zm14.3 4.4-5.4-5.4m-.1 5.4 5.5-5.4m16 5.4-5.4-5.4m-.1 5.4 5.5-5.4m85-15.3-8.3-8.2m0 8.2 8.3-8.2M466 129l-8.4-8.2m0 8.2 8.3-8.2m19.8 38.4h-72.3v-53.1h72.3v53.1Z" stroke="#DE8342" stroke-width="1.3" stroke-miterlimit="10"/>
  <path d="M481 154.3h-63V111h63v43.2Zm-21 15.4h-20.9v-10.5h21v10.5Z" stroke="#DE8342" stroke-width="1.3" stroke-miterlimit="10"/>
  <path d="M466.6 174.6h-34a5 5 0 0 1 4.9-5h24.2a5 5 0 0 1 4.9 5Zm-25.1-37.8h24.4m-4.1 0h-8.1v7.9a4 4 0 1 0 8 0v-7.9ZM612.6 168h-83.3a6.8 6.8 0 1 1 0-13.7h83.3a6.8 6.8 0 0 1 0 13.7Z" stroke="#DE8342" stroke-width="1.3" stroke-miterlimit="10"/>
  <path d="M574.8 161.2a3.8 3.8 0 1 1-7.7 0 3.8 3.8 0 0 1 7.7 0Zm16 0a3.8 3.8 0 1 1-7.7 0 3.8 3.8 0 0 1 7.7 0Zm16 0a3.8 3.8 0 1 1-7.7 0 3.8 3.8 0 0 1 7.7 0Zm-48 0a3.8 3.8 0 1 1-7.7 0 3.8 3.8 0 0 1 7.7 0Zm-16 0a3.8 3.8 0 1 1-7.7 0 3.8 3.8 0 0 1 7.7 0Zm59.4-6.9h-62.5l-4-22.7h70.5l-4 22.7Zm-65.2-15h38.8m12.2 0h8.4m-43.4 7.6h37.8M566 121.1h-28l2.7-12.7h25.1v12.7Zm-14.9-12.7-7.4 8.7m8.3-2.3-5.7 6.3" stroke="#DE8342" stroke-width="1.3" stroke-miterlimit="10"/>
  <path d="M575.8 118v-15.3h-40.6l-6.6 28.9h83.8l-3.1-13.7h-33.5Z" stroke="#DE8342" stroke-width="1.3" stroke-miterlimit="10"/>
  <path d="M590.8 118h-6V95.2h6V118Zm5.6-15.3v15.2" stroke="#DE8342" stroke-width="1.3" stroke-miterlimit="10"/>
  <path d="M523.6 108h-11.4V96.6h11.4V108Z" stroke="#DE8342" stroke-width="1.3" stroke-miterlimit="10" stroke-linejoin="bevel"/>
  <path d="M512.4 96.9h-9.8V87h9.8v9.8Z" stroke="#DE8342" stroke-width="1.3" stroke-miterlimit="10" stroke-linejoin="bevel"/>
  <path d="M502.7 87.1h-8.5v-8.4h8.5V87Zm-8.5-8.4H487v-7.2h7.2v7.2Z" stroke="#DE8342" stroke-width="1.3" stroke-miterlimit="10" stroke-linejoin="bevel"/>
  <path d="M487.2 71.6h-6.3v-6.3h6.3v6.3Z" stroke="#DE8342" stroke-width="1.3" stroke-miterlimit="10" stroke-linejoin="bevel"/>
  <path d="M481 65.5h-5.3v-5.3h5.3v5.3Z" stroke="#DE8342" stroke-width="1.3" stroke-miterlimit="10" stroke-linejoin="bevel"/>
  <path d="m534.5 105.8-56.8-48.7-5 5 56.6 66.1 5.2-22.4Z" stroke="#DE8342" stroke-width="1.3" stroke-miterlimit="10"/>
  <path d="M534 108.2h-10.2V121h7.2l3-12.8Zm-61.4-46.1v15.5m2.3 2.2a2.3 2.3 0 1 1-4.6 0 2.3 2.3 0 0 1 4.6 0Z" stroke="#DE8342" stroke-width="1.3" stroke-miterlimit="10" stroke-linejoin="bevel"/>
  <path d="M468.7 90a3.9 3.9 0 1 0 4-3.8v-4.7" stroke="#DE8342" stroke-width="1.3" stroke-miterlimit="10" stroke-linejoin="bevel"/>
  <path d="M109 160.7a8.7 8.7 0 1 1 12.2-12.3 8.7 8.7 0 0 1-12.2 12.3Zm-17.6-55.3-2.1 2.1 16.3 16.3c3-3 2.4-8-1.2-10.3l-13-8ZM66 130.9l2-2.1L84.4 145c-3 3-8 2.5-10.3-1.1l-8-13Zm11.1-11.2 3.2-3.1 14 9.8a5.2 5.2 0 1 1-7.3 7.3l-9.9-14Z" stroke="#DE8342" stroke-width="1.3" stroke-miterlimit="10"/>
  <path d="m123 172.1 9.1-.5.6-9c.4-7-2.2-13.8-7-18.8l-24.9-24.7-7 7 .5.3a5.2 5.2 0 1 1-7.3 7.3l-.3-.4-7 7 24.7 24.8c5 4.9 11.7 7.5 18.7 7ZM65.5 90.7l2.5 2.6m5.7 5.7 7.8 7.8M42 81.2l28.7 28.6M36.1 88.5l3.8 3.7m5.4 5.5 10.2 10m231.1-11.1h-66.2a6 6 0 0 1 0-12h66.2a6 6 0 1 1 0 12Zm-9.3-12a23.8 23.8 0 1 0-47.6 0h47.6Z" stroke="#DE8342" stroke-width="1.3" stroke-miterlimit="10"/>
  <path d="M257.4 90.6a3.8 3.8 0 1 1-7.7 0 3.8 3.8 0 0 1 7.7 0Zm-14.7 0a3.8 3.8 0 1 1-7.7 0 3.8 3.8 0 0 1 7.7 0Zm-14.7 0a3.8 3.8 0 1 1-7.6 0 3.8 3.8 0 0 1 7.6 0Zm58.7 0a3.8 3.8 0 1 1-7.7 0 3.8 3.8 0 0 1 7.7 0Zm-14.7 0a3.8 3.8 0 1 1-7.6 0 3.8 3.8 0 0 1 7.6 0Zm-38.5 55.3 5.4-49.3h29.3l6.7 49.3m-28.6-37.7-1.7 46.1m13.7-35.3 1.4 21.3M402 105.4l-11.3-11.8a24 24 0 0 0 6.4-16c0-15.3-15.2-27.6-34-27.6-19 0-34.2 12.3-34.2 27.6 0 15.2 15.3 27.5 34.1 27.5 6.6 0 12.8-1.5 18-4.1l21 4.4Zm-191.3-45h-30.5a16.4 16.4 0 0 0-23.2-15 22.3 22.3 0 0 0-41.8 13 13.8 13.8 0 0 0-6.1 18.9h-41" stroke="#DE8342" stroke-width="1.3" stroke-miterlimit="10"/>
  <path d="M180.2 78.7a17.4 17.4 0 1 1-34.8 0 17.4 17.4 0 0 1 34.8 0ZM166 81.2h34m-60.6 16.5h-36m332.3-33.1h-7.2m3.6 3.5V61M446 82.3l-5.1-5m0 5 5-5M406.3 54a1.6 1.6 0 1 1 0-3.2 1.6 1.6 0 0 1 0 3.1Zm16.6 20.6a2.2 2.2 0 1 1 0-4.4 2.2 2.2 0 0 1 0 4.4Zm-259.1 56.1h-7.2m3.6 3.6V127m13.8 21.5-5-5.1m0 5.1 5-5.1M134.3 120a1.6 1.6 0 1 1 0-3.1 1.6 1.6 0 0 1 0 3.1Zm16.7 20.7a2.2 2.2 0 1 1 0-4.4 2.2 2.2 0 0 1 0 4.4Zm149.8-91.9v7.1m3.6-3.6h-7.2m35.7-13.8-5.1 5m5.1.1-5.1-5m-32 25.2a1.6 1.6 0 1 1-3.1 0 1.6 1.6 0 0 1 3.1 0Zm19.5 13.9a2.2 2.2 0 1 1-4.4 0 2.2 2.2 0 0 1 4.4 0Z" stroke="#DE8342" stroke-width="1.3" stroke-miterlimit="10"/>
  <path d="M644.6 382.2H30.5a3.2 3.2 0 0 1-3.2-3.2v-.5c0-1.8 1.4-3.2 3.2-3.2h614c1.9 0 3.3 1.4 3.3 3.2v.5c0 1.8-1.4 3.2-3.2 3.2Z" fill="#260101" fill-opacity=".2"/>
  <path d="M128.3 374.7c-13.2 0-24.8-3-34.9-9.2A63.6 63.6 0 0 1 70 339a94.3 94.3 0 0 1-8.3-41.2c0-16 2.8-29.6 8.3-40.7a60.8 60.8 0 0 1 23.4-25.7c10-6 21.7-9 35-9 13.1 0 24.7 3 34.6 9a59 59 0 0 1 23.4 25.7 89.3 89.3 0 0 1 8.5 40.7c0 16-2.8 29.7-8.5 41.2a61.6 61.6 0 0 1-58 35.6Zm0-28.6c10 0 18-4.3 23.9-13a62 62 0 0 0 8.7-35.2c0-14.7-2.9-26.1-8.7-34.4a27.7 27.7 0 0 0-23.9-12.4c-10 0-18 4.1-23.9 12.4a58.7 58.7 0 0 0-8.7 34.4 62 62 0 0 0 8.7 35.2c5.9 8.7 13.9 13 24 13Zm153.9 28.6c-13.2 0-24.9-3-35-9.2a64.6 64.6 0 0 1-23.3-26.4 94.3 94.3 0 0 1-8.3-41.2c0-16 2.7-29.6 8.3-40.7a60.8 60.8 0 0 1 23.4-25.7c10-6 21.7-9 34.9-9s24.7 3 34.6 9a59 59 0 0 1 23.5 25.7 89.3 89.3 0 0 1 8.5 40.7c0 16-2.8 29.7-8.5 41.2a61.6 61.6 0 0 1-58.1 35.6Zm0-28.6c10 0 18-4.3 23.8-13a62 62 0 0 0 8.8-35.2c0-14.7-3-26.1-8.8-34.4a27.7 27.7 0 0 0-23.8-12.4c-10 0-18 4.1-23.9 12.4a58.7 58.7 0 0 0-8.8 34.4 62 62 0 0 0 8.8 35.2c5.9 8.7 13.8 13 23.9 13Zm94.2 25.9V225.2h50.4c10.8 0 20.6 1.5 29.3 4.5a42 42 0 0 1 21.1 14.7 45.4 45.4 0 0 1 8 28.1c0 11.4-2.7 20.8-8 28.1a47.4 47.4 0 0 1-20.9 16.5 76.9 76.9 0 0 1-28.6 5.2h-18.2V372h-33Zm33.1-76h16.2c18 0 27-7.9 27-23.5 0-7.6-2.4-13-7.2-16.2a37.8 37.8 0 0 0-20.7-4.7h-15.3v44.3Zm143.6 78.7a81.6 81.6 0 0 1-54.3-21.2l19-22.7a70.7 70.7 0 0 0 17.5 11 46.1 46.1 0 0 0 18.7 4.3c6.9 0 12-1.3 15.3-3.8 3.5-2.6 5.2-6 5.2-10.4 0-4.6-2-8-5.9-10.1a123 123 0 0 0-15.3-7.4l-19.1-8.1a65 65 0 0 1-14.2-8.4c-4.5-3.6-8.2-8-11-13.2a38.1 38.1 0 0 1-4.3-18.5c0-8.1 2.2-15.5 6.5-22a47.5 47.5 0 0 1 18.5-15.8 61 61 0 0 1 27.2-5.9 68.5 68.5 0 0 1 47.3 19.4l-16.9 21a60.6 60.6 0 0 0-14.4-8.6 39.5 39.5 0 0 0-16-3.2c-5.7 0-10.3 1.2-13.7 3.6a11 11 0 0 0-5 9.7c0 4.5 2.1 7.9 6.3 10.1 4.4 2.3 9.7 4.7 16 7.2l19 7.7a52.1 52.1 0 0 1 21 14.8 37.8 37.8 0 0 1 8 25 41 41 0 0 1-6.6 22.5 46.8 46.8 0 0 1-18.9 16.7 65.4 65.4 0 0 1-30 6.3Z" fill="#fff"/>
  <path d="M230.8 391.4c0 1.9-11.3 3.4-25.3 3.4s-25.3-1.5-25.3-3.4 11.3-3.4 25.3-3.4 25.3 1.5 25.3 3.4Z" fill="#2D1A0F" fill-opacity=".2"/>
  <path d="M206.1 273.9a8.6 8.6 0 1 1-17.1 0 8.6 8.6 0 0 1 17.1 0Z" fill="#C8462D"/>
  <path d="M219.3 272.5a8.6 8.6 0 1 1-17.2 0 8.6 8.6 0 0 1 17.2 0Z" fill="#C8462D"/>
  <path d="M209.1 264.2a7 7 0 1 1-14 0 7 7 0 0 1 14 0Z" fill="#C8462D"/>
  <path d="M218 351.4c-.6 4.4-6.3 38.6-7.7 38-1.2-.4-2.2-35-1.6-39.3.6-4.4 3.2-7.7 5.8-7.4 2.5.4 4.1 4.3 3.5 8.7Z" fill="#FA968C"/>
  <path d="M219.6 319.5c0 7 .2 31.8-5 31.8-5.1 0-13.6-29.9-13.6-37 0-7 7.9-18 13-18s5.6 16 5.6 23.2Zm-10.3 62.1s-.1 4.1-.8 6.4c-.6 2.2-.1 3.2 2.2 3.3 2.3.2 8.2 1 8.9.4.7-.7-2-1.8-4-2.6a6.5 6.5 0 0 1-3.4-5.7l-2.9-1.8Z" fill="#FA968C"/>
  <path d="M220 275.8c1.7 4.1 6.6 15.7 4.2 16.6-2.4 1-11.2-9-12.9-13.1-1.6-4.1-1-8.3 1.4-9.2 2.4-1 5.7 1.6 7.3 5.7Z" fill="#FAB9AF"/>
  <path d="m220.4 283.7-2.7-6.2.2-2.6c.3-2.7-1.9-5-4.6-5h-16.2a3.6 3.6 0 0 0-3.4 4.7l7.7 22.4 2.3 7.6 11 1.8 1.7-17.3h.2a4 4 0 0 0 3.8-5.4Z" fill="#FA968C"/>
  <path d="m220.4 283.7-2.7-6.2.2-2.6c.3-2.7-1.9-5-4.6-5h-2.6c.2 2.3-1.1 4.7-4.1 4.7-3 0-4.4-2.4-4.2-4.7h-5.3a3.6 3.6 0 0 0-3.4 4.7l7.7 22.4 2.3 7.6 11 1.8 1.7-17.3h.2a4 4 0 0 0 3.8-5.4Z" fill="#fff"/>
  <path d="M206.6 351.1c-.6 4.4-6.3 38.7-7.7 38.1-1.2-.5-2.2-35-1.6-39.4.6-4.4 3.2-7.7 5.8-7.3 2.5.3 4.1 4.2 3.5 8.6Z" fill="#FAB9AF"/>
  <path d="M208.2 319.2c0 7.1.1 31.8-5 31.8s-13.6-29.8-13.6-37c0-7 7.9-18 13-18s5.6 16.1 5.6 23.2Z" fill="#FAB9AF"/>
  <path d="M217.8 346.6c1.9-7.6 1.8-22 1.8-27.1 0-7.1.3-19-4-23.2l-13-.2c-5.1 0-13 10.9-13 18 0 5.2 4.6 22.6 9 31.5a53 53 0 0 0 19.2 1Z" fill="#066"/>
  <path d="M197.9 381.3s-.2 5.7-.8 8c-.6 2.2-5.5 9.4-2.7 9.4 0 0 6-5 7.2-6.8 1.6-2.1-1.1-4.1-.9-8.8l-2.8-1.8Z" fill="#FAB9AF"/>
  <path d="m215.6 389.1-.3-.2a5 5 0 0 1-2.8.7c-1.7 0-3-.6-4-1.6-.6 2.2-.1 3.2 2.2 3.3 2.3.2 8.2 1 8.9.4.7-.7-2-1.8-4-2.6Zm-14.6-2.7c0 .5-.1 1-.3 1.4-.2 2.6-2 5-5.3 5-1.4 2.8-2.9 5.9-1 5.9 0 0 6-5 7.2-6.8 1.2-1.5 0-3-.5-5.5Z" fill="#AA321E"/>
  <path d="M199.6 279c-1 4.4-5.7 16.7-8.3 16.1-2.5-.6-1.9-13.8-.9-18.1 1-4.3 3.8-7.4 6.4-6.8 2.5.6 3.8 4.5 2.8 8.9Z" fill="#FA968C"/>
  <path d="M214.8 249c-1.2-.3-2.4 0-3.2.7-1.4 1-3 1.8-4.7 1.8h-1c-1.3 0-2.5.8-3 2l-2 4.1h12v-1.4l1 .1a3.7 3.7 0 0 0 1-7.3Z" fill="#C8462D"/>
  <path d="m209.6 271.2-7.2-.7 3.7-7.4 3.5.7v7.4Z" fill="#FA968C"/>
  <path d="M217.5 256.5a3.7 3.7 0 1 1-7.5 0 3.7 3.7 0 0 1 7.5 0Z" fill="#C8462D"/>
  <path d="M215.6 262a3.7 3.7 0 1 1-7.5 0 3.7 3.7 0 0 1 7.5 0Z" fill="#C8462D"/>
  <path d="M214 257c0 6.2-5.2 7.5-8.6 7.5-3.5 0-3.2-5-3.2-7.7s2.8-4 6.2-4c3.5 0 5.6 1.5 5.6 4.2Z" fill="#C8462D"/>
  <path d="M213.8 259c0 3.6-1.2 9.4-4 9.4s-5.8-4.2-5.8-7.8c0-3.7 1.7-5.8 4.4-5.8 2.8 0 5.4.5 5.4 4.1Z" fill="#FAB9AF"/>
  <path d="M204.1 259.1h7c.8 0 2.1-.5 2.7-.9 0-2.6-1.3-3.9-5.4-3.4-2.3.3-3.9 1.6-4.3 4.3Z" fill="#FF9669"/>
  <path d="M211.2 258.5H203v-1.6c0-2 1.5-3.5 3.5-3.5h8v1.6c0 1.9-1.5 3.5-3.4 3.5Z" fill="#C8462D"/>
  <path d="M205.4 261.2v-4h1.7v2.3c0 1-.7 1.7-1.7 1.7Z" fill="#C8462D"/>
  <path d="M206 260.4c0 1.2-.3 2.2-1.3 2.2s-1.4-1.4-1.4-2.6c0-1.2.4-1.8 1.4-1.8 1 0 1.4 1 1.4 2.2Z" fill="#FAB9AF"/>
  <path d="M224.5 286.3c2.2-2 16.7-13.1 17.7-11.9 1 1.2-11.7 14.4-14 16.3-2.1 1.8-4.8 2.4-5.8 1.2s-.1-3.8 2-5.6Z" fill="#FA968C"/>
  <path d="M243.7 274.1s-2.8 0-3.1.8c-.3.8-.4 1.5.8 2 1.2.5 3.2.6 4.3.5 1.2-.2 3-1.3 3.2-1.5.4-1-1.7-.4-2.7-.2-1 .2-2.2.3-2.2-.2s2-.8 2.3-1.3c.3-.6-2.6 0-2.6 0Z" fill="#FA968C"/>
  <path d="M176.6 271.5s2.4 1.4 2.2 2.3c-.2 1-.5 1.5-1.8 1.2a8 8 0 0 1-3.8-1.9 7.4 7.4 0 0 1-1.9-3c.2-1 1.6.6 2.4 1.3.7.8 1.6 1.5 1.9 1 .2-.4-1.3-1.7-1.2-2.3.1-.6 2.2 1.4 2.2 1.4Z" fill="#FAB9AF"/>
  <path d="M186.8 292c-1.6-2.4-10.7-18.2-9.4-19.1 1.4-.9 12.7 13.5 14.3 16 1.6 2.4 1.8 5 .4 6-1.3.8-3.7-.4-5.3-2.9Z" fill="#FAB9AF"/>
  <path d="M484 212a7.3 7.3 0 1 1-14.6 0 7.3 7.3 0 0 1 14.7 0Z" fill="#FFA50A"/>
  <path d="M465.4 229.8c-1.2-3.3 1-10.4 1-10.4l-5.5-8.5c-.6-1.2-.4-2.6.4-3.7l.3-.4a7.3 7.3 0 0 0 1.7-5c0-1 .4-2.3 1.5-3.1 1-.9 2.5-1 3.8-.5 2.3 1.1 2.9 4 1.4 5.8l-.8.7 1.2 1-5.2 6.5a7 7 0 0 1 10.5 7.2 8.6 8.6 0 1 1-7.3 15 10 10 0 0 1-3-4.6Z" fill="#FAC855"/>
  <path d="M487.3 201.4a165 165 0 0 1-17.8 2c.4-.9.6-1.8.6-2.8 5.3-2 14.2-4.5 16.1-4.9 2.9-.5 5.5.3 5.8 1.9.3 1.5-1.8 3.3-4.7 3.8Z" fill="#049D9D"/>
  <path d="M480.1 215.2c1.4-3.9 8.8-19.6 11.1-18.9 2.3.8-1.5 17.8-2.8 21.8-1.3 3.9-4.3 6.4-6.6 5.6-2.2-.8-3-4.6-1.7-8.5Z" fill="#049D9D"/>
  <path d="M502 231.4c3-4 13.6-18.5 17.7-15.4 4.2 3.1-.7 23.8-5 29.6-5.9 7.8-14.1 5.6-18.3 2.5-4-3 2.5-12.6 5.6-16.7Z" fill="#FAB9AF"/>
  <path d="m467.7 222.5 14.5-7.4c2.4-1.2 6.7 3.4 6.7 3.4l6 5.8a4 4 0 0 1-1 6.6h-.1l6.3 16.3-10.6 3.5-5.6-5.8-17-16.6a3.6 3.6 0 0 1 .8-5.8Z" fill="#066"/>
  <path d="M475.4 223.8c3.9 2.2 19.2 13.2 17.9 15.5-1.3 2.2-18.7-5-22.6-7.3-3.9-2.2-6-5.8-4.7-8 1.3-2.3 5.5-2.4 9.4-.2Z" fill="#049D9D"/>
  <path d="M528.9 226.3c4.4-.2 36.9-2.5 36.4-.8-.3 1.4-4.8 1.6-8 2.6-8.6 3-24.9 7.5-28.1 7.6-4.5.2-8.2-1.8-8.3-4.4 0-2.6 3.5-4.9 8-5Z" fill="#FA968C"/>
  <path d="M491.1 233.4c1.5-2.6 11.3-18.1 12.7-17.3 1.4.8-6.2 17.6-7.6 20.1-1.4 2.6-3.7 4-5.1 3.2-1.4-.8-1.4-3.5 0-6Z" fill="#FAB9AF"/>
  <path d="M491.1 233.4c1-1.7 5.6-9 9-13.6.6 1 2.2 2.3 3.2 3-2 5.3-6.2 11.8-7 13.4-1.5 2.6-3.8 4-5.2 3.2-1.4-.8-1.4-3.5 0-6Z" fill="#049D9D"/>
  <path d="M502.6 237.2c5.2-3.1 23-14 25.6-9.7 2.7 4.4-12.4 23.5-19.7 27.9-9.8 5.9-17.1 1.1-19.8-3.3-2.6-4.4 8.8-11.8 14-15Z" fill="#FA968C"/>
  <path d="M511.5 220c-3.9 3.8-7.8 9.2-9.5 11.4a46.5 46.5 0 0 0-6 10.2c-4.7 3.4-9 7.6-7.3 10.5 2.7 4.4 10 9.2 19.8 3.3 4.5-2.7 12-11 16.4-18a29.1 29.1 0 0 1-13.4-17.5Z" fill="#69280F"/>
  <path d="M524.4 219.5c2.4 3.3 20.6 29.9 19.2 30.5-1 .5-24-21.6-26.3-25-2.4-3.3-2.8-7.2-.8-8.8 2-1.5 5.5 0 7.9 3.3Z" fill="#FAB9AF"/>
  <path d="M539.6 242.9s3.6 3.7 5.4 4.8c1.8 1.1 9.6 2.8 7.7 4.7 0 0-7.3.5-9.2.2-2.4-.4-1.7-3.6-4.8-6.7l1-3Z" fill="#FAB9AF"/>
  <path d="M548.8 249.2c2.5 1 5 2 3.9 3.2 0 0-7.3.5-9.2.2-1.6-.3-1.8-1.8-2.7-3.7 2.1 1.6 5 2.1 8 .3Z" fill="#C8462D"/>
  <path d="M558.7 225s5-1.4 6.8-2.4c1.8-1.1 7-7.2 7.7-4.6 0 0-3 6.6-4.2 8.2-1.5 2-4-.2-8 1l-2.3-2.2Z" fill="#FA968C"/>
  <path d="M568.6 220c2-1.9 4.2-3.6 4.6-2 0 0-3 6.6-4.2 8.2-1 1.3-2.4.8-4.4.7a6.9 6.9 0 0 0 4-7Z" fill="#C8462D"/>
  <path d="M507 207.6h.3c.1 0 .2 0 .1-.2l-.2-1.4-.2-.1h-.3v.2l.2 1.5h.2Z" fill="#C8E6EB"/>
  <path d="M503.9 217.2c-.4.3-.9.1-1-.3l-1.6-8.9c0-.2 0-.4.2-.5l4.2-3.4c.4-.2.9 0 1 .4l1.7 8.8c0 .2 0 .4-.2.5l-4.3 3.4Z" fill="#C8E6EB"/>
  <path d="M502.2 208c0-.3 0-.5.2-.6l3.9-3a.2.2 0 0 1 .3 0l1.8 8.9c0 .2 0 .4-.2.5l-4.1 3.3-.2-.3-1.7-8.9Z" fill="#fff"/>
  <path d="M502.2 214.1a3 3 0 0 1-.5 2.1c-.4.7-.9 1.7-.6 2.2.4 1 1 1.6 2.4 1 1.4-.6 3.1-2.1 4-3.3.8-1 2.2-4.4 2-4.7-.3-1.1-2.4 2-3 3-.8 1-2 2.3-2.4 1.8-.4-.5-.7-3.9-1.5-3.9-.6 0-.6 1-.4 1.8Z" fill="#FAB9AF"/>
  <path d="M504.3 209.2c.2.7.7 1.2 1.1 1 .5 0 .8-.7.6-1.4-.1-.7-.7-1.2-1.1-1-.5 0-.8.7-.6 1.4Z" fill="#C8E6EB"/>
  <path d="M478.2 217.2s4.2 3.5 3.5 4.8c-1 1.7-7.6-.4-7.6-.4l-3-7.7 2.8-2.1 4.3 5.4Z" fill="#FA968C"/>
  <path d="M472.3 201.2a3.7 3.7 0 1 1-4.6 5.9 3.7 3.7 0 0 1 4.6-5.9Z" fill="#FAC855"/>
  <path d="M470.6 204.3c4.8 3.8 2.7 8.7.6 11.4-2.1 2.7-6-.6-8-2.2-2.2-1.7-1.6-4.7.6-7.4 2-2.8 4.7-3.4 6.8-1.8Z" fill="#FAC855"/>
  <path d="M472 205.6c2.8 2.3 6.7 6.9 5 9-1.8 2.2-6.9 2-9.8-.3-2.8-2.2-3.5-4.8-1.8-7s3.7-4 6.6-1.7Z" fill="#FAB9AF"/>
  <path d="m466.2 213.4 4.3-5.6a6 6 0 0 0 1-2.5c-2.1-1.7-4-1.5-6 2-1.3 2-1.3 4 .7 6Z" fill="#FF9669"/>
  <path d="m470 207.4-5 6.4-1.3-1a3.5 3.5 0 0 1-.6-4.9l5-6.4 1.3 1a3.5 3.5 0 0 1 .6 5Z" fill="#FAC855"/>
  <path d="m468.6 213.7-3.2-2.5 1-1.4 1.9 1.4c.7.6.9 1.7.3 2.5Z" fill="#FAC855"/>
  <path d="M468.4 212.7c1 .7 1.5 1.6.9 2.4-.7.8-2 .2-3-.5-1-.8-1.1-1.4-.5-2.2.6-.8 1.6-.5 2.6.3Z" fill="#FAB9AF"/>
  <path d="M475 225a9.4 9.4 0 1 1-18.8 0 9.4 9.4 0 0 1 18.8 0Z" fill="#FAC855"/>
  <path d="M465.6 215.7a4.6 4.6 0 1 1-9.2 0 4.6 4.6 0 0 1 9.2 0Z" fill="#FAC855"/>
  <path d="M324.2 261.1c3.5-1.2 20.7-8.3 20-10.3-.7-1.9-19 2.1-22.6 3.4-3.5 1.3-5.8 3.8-5 5.8.6 1.9 4 2.4 7.6 1.1Z" fill="#FAB9AF"/>
  <path d="M344.5 267.7c-4.4-2.5-26.4-11.2-28-8.2-1.6 3 17.6 16.4 22.1 18.9s9.5 2 11.1-.9c1.7-3-.7-7.4-5.2-9.8Z" fill="#FAB9AF"/>
  <path d="M329.3 272.2c4 2.8 7.7 5.3 9.3 6.2 4.5 2.5 9.5 2 11.1-.9 1.7-3-.7-7.4-5.2-9.8-1.7-1-6-2.9-10.7-4.6-4.1 2.8-4.5 9-4.5 9Z" fill="#066"/>
  <path d="M330.1 398.4c0 1 11.4 1.7 25.4 1.7 14 0 25.4-.8 25.4-1.7 0-1-11.4-1.7-25.4-1.7-14 0-25.4.7-25.4 1.7Z" fill="#2D1A0F" fill-opacity=".2"/>
  <path d="M342.4 355.8c.6 4.1 5.9 36 7.2 35.5 1.1-.5 2-32.6 1.5-36.7-.6-4-3-7.1-5.4-6.8-2.4.4-3.9 4-3.3 8Z" fill="#FAB9AF"/>
  <path d="M343.3 321.5c-.8 6-2.6 39.4 1.6 40 4.1.5 13.1-36.4 14-42.3.7-5.9-2-11.1-6.1-11.7-4.2-.6-8.7 8-9.5 14Z" fill="#69280F"/>
  <path d="M350.5 384.7v7.8l1.3 4.4c0 .3-.2.6-.5.6h-3v-1l-1.5 1s-8 .5-8.3 0c-1-1.6 3.6-2.3 7-3.6 3.4-1.3 1-14.1 1-14.1l4 5Zm9-28.9c.6 4.1 5.9 36 7.2 35.5 1.1-.5 2-32.6 1.5-36.7-.6-4-3-7.1-5.4-6.8-2.4.4-3.9 4-3.3 8Z" fill="#FAB9AF"/>
  <path d="M347 387h3.9c.5-10 .5-29.7.2-32.4-.6-4-3-7.1-5.4-6.8-2.4.4-3.9 4-3.3 8 .4 2.7 2.6 21.6 4.6 31.2Zm9.3-69.1c-.2 6 1.9 43.7 6 43.8 4.3.1 9-33.2 9.1-39.1.2-6-3.1-15.2-7.3-15.3-4.2-.1-7.7 4.6-7.8 10.6Z" fill="#69280F"/>
  <path d="M367.6 384.7v7.8l1.3 4.4c0 .3-.2.6-.5.6h-3v-1l-1.5 1s-8 .5-8.3 0c-1-1.6 3.6-2.3 7-3.6 3.4-1.3 1-14.1 1-14.1l4 5Z" fill="#FAB9AF"/>
  <path d="M350.6 393.1a7 7 0 0 1-3.7 1c-.5 0-1 0-1.4-.2-3.4 1.3-8 2-7 3.6.3.5 8.3 0 8.3 0l1.5-1v1h3c.3 0 .6-.3.5-.6l-1.2-3.8Zm17-.5a7 7 0 0 1-4.4 1.4h-.6c-3.4 1.2-8 1.9-7 3.5.3.5 8.3 0 8.3 0l1.4-1v1h3.1c.3 0 .6-.3.5-.6l-1.3-4.3Z" fill="#066"/>
  <path d="m365.5 268.7-22.2-1.6a6.5 6.5 0 0 0-6.7 8.1l9.5 38a10 10 0 0 0 19.6-1l5-37c.5-3.3-2-6.2-5.2-6.5Z" fill="#FA968C"/>
  <path d="m365.5 268.7-6.8-.5c.5 2.6-.8 5.5-4.1 5.7-4 .3-5.6-3.4-4.7-6.3l-6.6-.5a6.5 6.5 0 0 0-6.7 8.1l9.5 38a10 10 0 0 0 10 7.5c4.9-.1 13.1-1.9 13.8-6.7l.9-38.8c.4-3.3-2-6.2-5.3-6.5Z" fill="#066"/>
  <path d="M344.3 255.3a11 11 0 0 0 13.1 8.6c4.4-1 2.6-8.7 1.8-12.1-.7-3.4-4.6-4.4-9-3.5-4.4 1-6.7 3.6-6 7Z" fill="#69280F"/>
  <path d="M350.9 268.2h7.8l-1-14-4.7 4-2.1 10Z" fill="#FA968C"/>
  <path d="M371.2 286.3c6.5 7 14.7 9.8 16.4 8.2 1.7-1.7-2.4-9.2-8.6-16-6.3-7-12.6-11.4-15.1-9-2.5 2.4.7 10 7.3 16.8Z" fill="#FAB9AF"/>
  <path d="M379 278.6c-6.3-7-12.6-11.5-15.1-9-2.4 2.2.4 9 6.3 15.7 0 0 7.7-3 8.8-6.7Z" fill="#066"/>
  <path d="M375.2 293.2c-3.7 1-20.2 6.5-19.6 8.6.5 2 18-.6 21.7-1.8 6.7-2.1 11.2-4.8 10.6-6.9-.5-2-9-.9-12.7 0ZM346 259.8c1.2 5.7 2.9 8.2 5.8 7.6 3.5-.8 7.1-5.6 6.1-10.3-1-4.6-3.6-6.9-7.2-6.1-3.5.7-5.8 4.2-4.8 8.8Z" fill="#FAB9AF"/>
  <path d="m357.4 255.3-9 2a5 5 0 0 1-2.7-.3 6.3 6.3 0 0 1 5-6c3-.7 5.5.9 6.7 4.3Z" fill="#FF9669"/>
  <path d="m348.3 256.4 10.3-2.2-.5-2.1c-.5-2.5-3-4-5.4-3.5l-10.3 2.3.4 2c.5 2.5 3 4 5.5 3.5Z" fill="#69280F"/>
  <path d="m356.4 258.3-1.1-5.1-2.3.5.7 2.9c.2 1.2 1.5 2 2.7 1.7Z" fill="#69280F"/>
  <path d="M355.3 257.5c.4 1.5 1.1 2.7 2.4 2.4 1.2-.3 1.6-2.6 1.2-4.1-.3-1.5-1.2-1.7-2.4-1.5-1.3.3-1.5 1.7-1.2 3.2Z" fill="#FAB9AF"/>
  <path d="M353 302.4h-11.5c-.8 0-1.4-.6-1.5-1.4l-1.9-16c0-1 .6-1.7 1.5-1.7h11.5c.7 0 1.4.6 1.5 1.3l1.9 16c0 1-.6 1.8-1.5 1.8Z" fill="#A5C8CD"/>
  <path d="M352.3 303h-11.5c-.7 0-1.4-.6-1.5-1.3l-1.9-16.1c0-.9.6-1.7 1.6-1.7h11.4c.8 0 1.4.6 1.5 1.3l1.9 16.1c.1.9-.6 1.7-1.5 1.7Z" fill="#C8E6EB"/>
  <path d="M355.6 297.5s2.8 2.3 2.4 3.4c-.5 1.1-1 1.8-2.6 1.2-1.6-.6-3.5-2-4.5-3.2a9.5 9.5 0 0 1-1.7-4.2c.3-1.2 1.9 1 2.7 2.1.8 1.1 1.8 2.2 2.2 1.7.4-.5-1.3-2.5-1-3.2.3-.8 2.5 2.2 2.5 2.2Z" fill="#FAB9AF"/>
  <path d="M364 387h3.9c.5-10 .6-29.7.3-32.4-.6-4-3-7.1-5.4-6.8-2.4.4-3.9 4-3.3 8 .4 2.7 2.6 21.6 4.6 31.2Z" fill="#69280F"/>
</svg>
