<svg width="630" height="420" viewBox="0 0 630 420" fill="none" xmlns="http://www.w3.org/2000/svg">
  <g clip-path="url(#a)">
    <path d="m403.2 238-13.8-20.7-8.2-30.8v-.2h-12.5l-22.3-33.5c2 .4 4.9 2.2 8.5 4.6 1.3.9 2.3 1.3 3.1 1.3 3 0 3-5.2 5.8-7.4a4 4 0 0 1 2.5-.7c1.7 0 3.7.6 5.5 1.2 1.8.6 3.5 1.2 4.5 1.2.6 0 1-.2 1-.7.5-2.6-3.3-4-6.6-5s-4.6-2.3-1.5-7.7c3-5.4-.6-3.8-2.8-10.3a8 8 0 0 0-4.6-5 60.8 60.8 0 0 1 62.2 24.6 61.5 61.5 0 0 1 11 40.1c-.4-.4-.9-.7-1.4-.9 0 0 1-1.6-6.7-3.7s-4.4-10.7-11.4-12.6a11 11 0 0 0-7.3.3 9 9 0 0 1-3.5.8 9 9 0 0 1-2.4-.4c-1.6-.4-3-.6-4.4-.6-3.6 0-6.2 1.6-5.4 5.5 1.1 5.5-5.2 4.2-4 10.6 1.3 6.5 8.6 6.9 14.6 7.3 6 .4-3.3 7.8.7 13.3 4 5.6 11.9 6.5 7.6 9.3-4.2 2.9-12.4 8.7-6.2 14.1a7 7 0 0 0 4.5 1.8c-2 1.5-4.3 2.9-6.5 4.1Zm19-69.6c2.7 0 4 2 5.5 4s3 4 6.1 4l.9-.1a61.3 61.3 0 0 0-10.7-27.4l-1.2-.2s-2.5-1.3-5-1.3c-1.3 0-2.6.3-3.5 1.5-2.7 3.3-8.6-.3-10.7 4.3-2.1 4.7 8.3 2.2 11.4 6.8 3 4.3.7 8.5 5.7 8.5a11 11 0 0 0 1.5 0Zm-45-38.3c-2.4 0-3.7 2.3-2.3 5.8 1.5 3.8 1.8 9.9 4.4 9.9a3 3 0 0 0 1.4-.5c3.5-2.2 4.3-4.7 6.6-4.7.4 0 .7 0 1.1.2 0 0 5-3.5.3-6.8-4.6-3.2-5.2-1.4-9-3.3-1-.4-1.7-.6-2.5-.6Z" fill="#023F3F" fill-opacity=".1"/>
    <path d="M358 158.4a5 5 0 0 1-3-1.2 28 28 0 0 0-8.6-4.6l-10.8-16.2a61.4 61.4 0 0 1 26.2-12.4 8 8 0 0 1 4.6 5.1c2.2 6.4 5.8 5 2.8 10.3-3 5.4-1.8 6.7 1.5 7.7s7.1 2.4 6.6 5c0 .5-.4.7-1 .7-1 0-2.7-.6-4.5-1.2-1.8-.6-3.8-1.2-5.5-1.2a4 4 0 0 0-2.5.7c-2.8 2.2-2.8 7.3-5.8 7.3Zm51.7 75.2a7 7 0 0 1-4.5-1.8c-6.2-5.5 2-11.3 6.2-14.1 4.3-2.8-3.6-3.8-7.6-9.3-4-5.5 5.3-13-.7-13.4-6-.4-13.3-.8-14.6-7.2-1.2-6.5 5.1-5.1 4-10.6-.8-4 1.8-5.5 5.4-5.5 1.3 0 2.8.2 4.4.6a9 9 0 0 0 2.4.4c1.4 0 2.4-.4 3.5-.8a11 11 0 0 1 7.3-.3c7 1.9 3.7 10.4 11.4 12.6 7.6 2.1 6.7 3.7 6.7 3.7.5.2 1 .5 1.4 1a61.2 61.2 0 0 1-25.3 44.7Zm24.1-57.6c-3 0-4.6-1.9-6-3.8-1.5-2-2.9-4-5.6-4h-1.5c-5 0-2.8-4.1-5.7-8.4-3-4.6-13.5-2.2-11.4-6.8 2.1-4.6 8-1 10.7-4.3 1-1.2 2.2-1.6 3.5-1.6 2.5 0 5 1.4 5 1.4.4 0 .8 0 1.2.2a61.4 61.4 0 0 1 10.7 27.3h-.9Zm-54.5-30.2c-2.6 0-2.9-6-4.4-10-1.4-3.4-.1-5.7 2.3-5.7a6 6 0 0 1 2.5.6c3.8 1.9 4.4 0 9 3.3 4.7 3.3-.3 6.8-.3 6.8l-1-.2c-2.4 0-3.2 2.5-6.7 4.7a3 3 0 0 1-1.4.5Z" fill="#066" fill-opacity=".5"/>
    <path d="M456.1 255.9s.5-4.7-2-4.5c-2.4.1-3 1.3-2.8 2.2.3.9 2.7 3.8 2.7 3.8l2.1-1.5Z" fill="#FAB9AF"/>
    <path d="M494.4 265.3s-2.8 3.2-8.6 6.9a53.5 53.5 0 0 1-11 5.4 57.8 57.8 0 0 1-14.8 3.2c-6.1-.2-6.8-23.8-6.8-23.8s.6-2.3 3.7-1.7c0 0 4.8 13.3 6.5 14.3 1.5 1 10.2-12.1 17.6-13 5-.7 13.4 8.7 13.4 8.7Z" fill="#066"/>
    <path d="M478 380.3s.5 5.1-.6 5.7h-14s0-1.7 2.2-2c2.3-.4 6.2-1.7 6.9-4.6.7-3 5.5.9 5.5.9Z" fill="#481907"/>
    <path d="M467.7 317.4c.1 3.4.3 7 .6 10 1.5 15 2 33 2.3 36.5.3 6 1.5 15.7 1.5 15.7s2.4 2.2 7 1.2c0 0 3.8-14 4.7-28.5v-.8l.3-6.5 1.5-39.7-17.6-4.1s-.4 7.8-.3 16.2Z" fill="#69280F"/>
    <path d="M467.7 317.4c4.5 7.8 13 22 16.4 27.6l1.5-39.7-17.6-4.1s-.4 7.8-.3 16.2Z" fill="#481907"/>
    <path d="M474.9 277.6c-3.5 1.3-10 3-14 3.2.7 0 5.1-1 6.7-3 1.8-2 4.8-7.9 7.1-5.5 1.2 1.1.8 3.3.2 5.3Z" fill="#023F3F"/>
    <path d="M504.5 315s1 4.2.9 5.2a18 18 0 0 1-2 5c-.6.8-.6-3.5-1-4.2-.5-.7-.3 1.6-.6 1.8-.4.2-1-1.7-1.2-2.4-.3-.7 1-3 1-4.7.1-1.7 2.9-.8 2.9-.8Z" fill="#FAB9AF"/>
    <path d="M513 374.4s2.5 2.2 2 3.9c-.5 1.6-2.7 2.7-3 4.6-.3 2-1.5 3.1-2.6 3.1H504s-.8-1.4 1.2-1.8c2-.4 2.7-2.8 2.5-5l.2-5 4.2-1 .8 1.2Z" fill="#481907"/>
    <path d="M470.7 305.7s16.5 35.3 25.3 50.8a927 927 0 0 0 11.5 19.8s5-2 5.5-3.4c0 0-3.3-29.9-9.2-37.1a54.2 54.2 0 0 1-7.4-20.8c-.2-4.4-4-14.7-4-14.7l-21.7 5.4Z" fill="#69280F"/>
    <path d="M467.7 303.9s5.3 5.7 14.5 7.5c4 .7 12.1 1.5 14.1-1.4.5-.6.5-1.6.4-3.2-.3-4-1.3-11.8 3.3-27.4.4-1.4.7-2.8.8-4.2 1-8 1-14-6-17.2-10.4-4.9-14.7-.9-14.7-.9s-5.5 2.6-8 10.1c-5 15-4.4 36.7-4.4 36.7Z" fill="#066"/>
    <path d="M488.6 256.6a7.7 7.7 0 0 1-7.8.6 58.9 58.9 0 0 1 0-6.2l3.8-2.4 3.5-2.3c-.4 8 1.3 9.8.5 10.3Z" fill="#FAB9AF"/>
    <path d="M487.5 249.5s-2.4 3.6-6.8 4.5l.2-3.2 3.7-2.2 2.9 1Z" fill="#E8945B"/>
    <path d="M477.5 250s9 3.4 11-2.1 4.5-8.8-1.2-11.2c-5.6-2.3-7.5-.6-8.6 1-1.1 1.7-3.4 11.4-1.2 12.4Z" fill="#FAB9AF"/>
    <path d="M494 237.4c.2-.1.4-.2.8-.1 0 0-.3-.3-.8-.4 0-.6 0-1.7-1-2.2 0 0 .5.4.4 1-1-1.4-3.3-2.8-10.5-3.6-9.5-1.1-7.6 5.4-6.5 6.4 1 1 4.5-.4 6.7.2 2.2.6 2 4 2.7 4.6.6.6.5-.3 1.6-.5 1.2-.3 1 1.4.4 2.5-.5 1 .6 2.8.6 2.8l1.7-1.3c1.8-1.2 4.4-7.5 4-9v-.4Z" fill="#69280F"/>
    <path d="M496.7 306.8c-.3-4-1.3-11.8 3.3-27.4l.9-4.2c-3.4-1-9.6 1.4-9.6 1.4s-1.5 20.7 5.4 30.2Z" fill="#023F3F"/>
    <path d="M496.7 259s4.1 1.5 6.8 12.6c1.8 7.3 5 18 5.4 21.4.3 3.4-3.7 23.1-3.7 23.1s-.6.5-2 .2-2-1.2-2-1.2-1-13.2-.7-19.4c.1-2.6-12-18.9-18.5-21-2.5-.8 14.7-15.7 14.7-15.7Z" fill="#066"/>
    <path d="M438.3 244.7s12-.3 26 2.2l1.4-3.6 1.6-4s-14-6-22.4-14.5l-6.6 20Z" fill="#C8462D"/>
    <path d="m445.1 224.6-7 20.5c-1-.3-1.5-1.4-1.1-2.4l6-17.2c.4-.8 1.3-1.2 2.1-.9Zm6.6 35.4c1.4.2 2.7-.7 3-2l2.4-12a2.5 2.5 0 0 0-5-1l-2.3 12c-.3 1.3.6 2.7 2 3Z" fill="#FFA699"/>
    <path d="M438.3 244.7s12-.3 26 2.2l1.4-3.6a66.5 66.5 0 0 0-27.4 1.4Z" fill="#9C1900"/>
    <path d="m460.4 246.2 3.8.7s3.5.6 4.7-2.5l.2-.7c.9-4-1.3-4.6-1.3-4.6l-4.8-2-1.6 5.5-1 3.6Z" fill="#FFA699"/>
    <path d="m460.4 246.2 3.8.7s3.5.6 4.7-2.5c-2.2-1.6-7.5-1.8-7.5-1.8l-1 3.6Z" fill="#E8945B"/>
    <path d="M452 248.4s1.9.7 1.6 1.5c-.4.8-2.7 2-3 1.3-.5-.6.3-3.5 1.5-2.8Zm4.2 6.8.3-2.8c0-.9.2-1.6 0-1.6s-.4.1-.5.4l-.4 2 .2 1.7.4.3Z" fill="#FAB9AF"/>
    <path d="M267.8 385.8c-5.7 0-4.6-7.6-4.6-7.6l2.1-24.7H312a612 612 0 0 0-2 25c-1 6 14 7 14 7l-56.2.3Z" fill="#066" fill-opacity=".7"/>
    <path d="M270.8 383.5h46.3c-.7 0-6.5-.1-7.2-4v-1.1l.6-9v-.2a3283.3 3283.3 0 0 1 1.3-13.7l.2-1.8h-43.8l-.3 3.5-.6 7.3-.7 8.2-.3 3.3-.1 1.8c0 2.2.7 5.6 4.6 5.7Z" fill="#066" fill-opacity=".3"/>
    <path d="m163.7 186.3 25.5 102.3 3.5 14 11.8 47.6h220.3l-43.7-163.9H163.7Z" fill="#DDE3E3"/>
    <path d="m163.7 186.3-3.5 1.2 39.6 166.3 4.7-3.6-40.8-163.9Zm36.1 167.5h219l6-3.6H204.5l-4.7 3.6Z" fill="#066" fill-opacity=".5"/>
    <path d="M276.7 385.8h47.4v-2.3h-47.4v2.3Z" fill="#7AADAD"/>
    <path d="m312 353.8-.2 1.7-44.5 9 .6-7.3.3-3.4H312Z" fill="#066"/>
    <path d="M317 383.5h-46.2c-4 0-4.6-3.5-4.6-5.7l44.3-8.3-.7 8.9v1c.8 4 6.6 4.1 7.3 4.1Z" fill="#066" fill-opacity=".6"/>
    <path d="M295.4 383.6h-16.6 38.3-21.7Z" fill="#8CABF1"/>
    <path d="M163.7 186.3h217.4L416.4 318H196.5l-32.8-131.7Z" fill="#DDE3E3"/>
    <path d="M406.1 312.3H202.6l-7.3-29-2.8-11.2-1.1-4.5-7.5-29.8-.4-1.6-4-15.7-1.7-7-1.5-6-3.6-14.1h200.6l4 14 1.6 6 2 7 12.7 46.5 1.1 4 .5 1.7 8.8 32 2.1 7.7Z" fill="#FFE7B8"/>
    <path d="M377.2 207.4h-201l-3.5-14h200.6l4 14Z" fill="#066"/>
    <path d="M181 199.7c-.2-1 .4-1.7 1.4-1.7 1 0 2 .7 2.2 1.7.2 1-.4 1.8-1.4 1.8-1 0-2-.8-2.2-1.8Zm5.9 0c-.3-1 .3-1.7 1.3-1.7s2 .7 2.2 1.7c.2 1-.3 1.8-1.3 1.8s-2-.8-2.2-1.8Zm6.3 0c-.3-1 .3-1.7 1.3-1.7s2 .7 2.2 1.7c.2 1-.3 1.8-1.3 1.8s-2-.8-2.2-1.8Z" fill="#E9F3FE"/>
    <path d="M333.4 111.5c8.3-9.7 21-29 29.5-39 1.8-2 .3-5.2-2.4-5.2H345L359.6 34c.6-1.4-1.3-2.5-2.2-1.3l-35.5 47.5a2 2 0 0 0 1.8 3l17.6-2L331 110c-.6 1.6 1.4 2.8 2.5 1.5Zm-73.1 58.8c1.8-9.5 3-27.1 5-37 .3-2-1.8-3.5-3.6-2.5l-10.3 5.8-2.7-27.5c-.1-1.1-1.8-1.2-2 0L241 154a1.5 1.5 0 0 0 2.4 1.4l10.9-8 3.8 23c.2 1.2 2 1.3 2.3 0Z" fill="#DE8342"/>
    <path d="m415 315.1-176.8 15a17.7 17.7 0 0 1-17.7-25l75-167.6a17.7 17.7 0 0 1 30.8-2.6l102 152.8c7.5 11.2.2 26.3-13.3 27.4Z" fill="#fff"/>
    <path d="M310.7 133.7a11 11 0 0 0-9.1 6.5l-75 167.7a10.9 10.9 0 0 0 1.1 10.8c2.3 3.2 6 5 9.9 4.6l176.9-14.9a10.9 10.9 0 0 0 8.2-17l-102-152.8c-2.2-3.4-6-5.2-10-4.9Zm104.9 188.1-176.9 15c-8.7.6-16.9-3.2-22-10.3a24 24 0 0 1-2.3-24l75-167.8a24.1 24.1 0 0 1 20.2-14.4c9-.7 17.3 3.3 22.3 10.8L434 284a24.2 24.2 0 0 1 1.6 24.2 24.2 24.2 0 0 1-19.9 13.7Z" fill="#DE8342"/>
    <path d="m333.9 257.5-25.5 2.1-11-86.7 32.8-2.8 3.7 87.4Zm-27.4 32c-.1-2.3 0-4.5.7-6.5a14.8 14.8 0 0 1 8.1-9c2-1 4.4-1.6 7-1.8a18.9 18.9 0 0 1 12.9 3.4 15.3 15.3 0 0 1 5.6 11A15 15 0 0 1 332 302c-2 1-4.3 1.6-7 1.8-2.6.2-5 0-7.1-.6a15 15 0 0 1-5.6-2.9 14.9 14.9 0 0 1-5.7-10.8Z" fill="#DE8342"/>
    <path d="m196.7 262.8 1-1.9c.3-.5 1.8-2.3 2-1.9.3.4 1.4 3 .8 3.8-.5.7 0 2-2.7 2.8l-1-2.8Z" fill="#FAB9AF"/>
    <path d="M166 255s14.2 11.7 19.7 10.6c4.3-.8 11.1-3 11.1-3s1.8 1.7 1.3 3.8c0 0-8.7 8.1-14.9 8.2-9.6 0-14.2-4.8-14.2-4.8l-3-14.9Z" fill="#B24F08"/>
    <path d="M141.3 379.3s.4 6.6 1.7 6.7h14.5s0-2-2.4-2.4c-2.4-.4-6.3-2-7.7-5.1-1.5-3.3-6.1.8-6.1.8Z" fill="#481907"/>
    <path d="M140.8 379.8s2.4.8 4.4.8c2.1 0 4-.6 4-.6s.5-4.4 3-14.3a325 325 0 0 1 6-20 271 271 0 0 0 10-37.4v-.1l-23-10.1s2.8 31.4-.8 43.4c-.6 1.7-1 3.7-1.4 5.8-2.3 13.1-2.2 32.5-2.2 32.5Z" fill="#066"/>
    <path d="M152.2 365.7a325 325 0 0 1 6-20 271 271 0 0 0 10-37.5l-23-10.1s2.8 31.4-.8 43.4a214 214 0 0 0 7.8 24.2Z" fill="#023F3F"/>
    <path d="M159.2 379.3s.4 6.6 1.7 6.7h14.5s0-2-2.3-2.4c-2.4-.4-6.3-2-7.8-5.1-1.5-3.3-6 .8-6 .8Z" fill="#481907"/>
    <path d="M172.3 298.8s.3 20.4-3.2 45.4c-3.6 25-2.4 35.5-2.4 35.5s-2.4.8-3.4.9c-2.4.2-5-.6-5-.6s-5-25-3.6-37.5c1.5-12.5-6.9-42.9-6.9-42.9l24.5-.8Z" fill="#066"/>
    <path d="m156 251.2 4.5 3 4-1.2c.8-1 1-3.1 1-4.9 0-1.8-.2-3.3-.2-3.3l-6-2.6-2.3-1 .2 2c.4 4.8-1.2 8-1.2 8Z" fill="#FAB9AF"/>
    <path d="M172.4 304.5c-5.6 5.4-26.8 4.5-28-1.5-1.4-6 1.4-50.6 11-53.4 1.9-.6 12.5 2.8 12.5 2.8s1.6 4.4 2.7 10a574.2 574.2 0 0 1 1.8 42Z" fill="#DE8342"/>
    <path d="M157.7 243.4c1.2 2 5.5 3.9 7.8 4.7 0-1.8-.2-3.3-.2-3.3l-6-2.6c-1.4 0-2.2.2-1.6 1.2Z" fill="#E8945B"/>
    <path d="M167.6 244.5s-9.7 3-11.5-3.1c-1.8-6.1-4.3-9.8 1.8-12 6.2-2.2 8.1-.3 9.2 1.6 1.1 2 3 12.5.5 13.5Z" fill="#FAB9AF"/>
    <path d="M166.7 230.4s-.6 7.1-2 6.8c-1.5-.3-3.2-1-3 1.2.3 2.2-1.4 5.8-3.5 5.8-4.5 0-9.5-11.7-8.2-13.9 3.6-6.4 22-7.7 16.7.1Z" fill="#69280F"/>
    <path d="M165.3 249.7c-.1 0-7.3-3.2-8.1-3-.9.3-1.9 2.9-1.9 2.9l12.6 2.8s-1-2-2.6-2.7Z" fill="#B24F08"/>
    <path d="m209.8 284.3-40 37.8c-.9.7-1.9 1-2.3.5l-1.3-1.5c-.5-.4-.2-1.4.6-2.1l40-37.7c.9-.8 1.8-1 2.3-.6l1.3 1.5c.4.4.2 1.4-.6 2.1Z" fill="#330E00"/>
    <path d="m187.3 305.5-17.6 16.6c-.8.7-1.8 1-2.2.5l-1.3-1.5c-.5-.4-.2-1.4.6-2.1l17.6-16.6 2.9 3.1Z" fill="#69280F"/>
    <path d="M209.5 241.1a28.9 28.9 0 1 1 42.1 39.6 28.9 28.9 0 0 1-42-39.6Zm-9 29a31.4 31.4 0 1 0 60-18.3 31.4 31.4 0 0 0-60 18.3Z" fill="#330E00"/>
    <path d="M220.8 288.1a28.6 28.6 0 0 1-10-6 29 29 0 0 1 33.5-46.6L220.8 288Z" fill="#FFF3DB"/>
    <path d="m234.8 289.6 20-44.6a28.3 28.3 0 0 1 4.6 13.6 28.8 28.8 0 0 1-24.6 31Z" fill="#EEF4FF"/>
    <path d="M230.6 289.9a29.3 29.3 0 0 1-9.8-1.8l23.5-52.6a28.7 28.7 0 0 1 10.4 9.5l-19.9 44.6-4.2.3Z" fill="#E3A87E"/>
    <path d="M230.6 289.9a29.3 29.3 0 0 1 21-9.1 28.8 28.8 0 0 0-21 9Zm-15.8-4.7Zm40.2-39.8Z" fill="#698EBF"/>
    <path d="M172.4 298.9c-22-15.8-20.2-36.7-20.2-36.7 8 4.5 16 14.6 19.7 23.3l.5 13.4Z" fill="#B24F08"/>
    <path d="M194.2 291.7c1.6-.3 2.6-1.5 2.8-1.7 0 0 .7 0 0 1.4-.2.1-.3.5-.4.7l.1.2c1 0 1.8-.3 3.5 0 .3 0 .4.7.3.9 0 .4 0 .9-.4 1.5-.3.4-1 .8-2.8 1.5-.7.2-2.6 0-4.3-.6l-1.4-.6.4-2.7.4.1c.5.1 1.2-.5 1.8-.7Z" fill="#FAB9AF"/>
    <path d="M159 252.4s-19.8 3.8 5.9 32.5c4 4.6 26.3 10.6 26.3 10.6s2.2-2 1-3.5c0 0-15.2-11-18.6-12.8-1.5-.8-5.8-17.7-8.3-21.8-2.5-4-6.3-5-6.3-5Z" fill="#DE8342"/>
    <path d="M197.3 263.1s.6-1.2.7-1.9c.2-.6 1-2.5 1.3-2.9.1 0 .6 0 .6.7 0 .2 0 .7-.3 1.2-.3.9-.3 2.1-.4 2.5-.3 1-2 .4-2 .4Zm7.8-49.1c-.3.3-.3.8-.2 1.2a8 8 0 0 0 2.5 2.8 12.7 12.7 0 0 1 .6.5c1.1 1 .7 1.2 2.7 3.3 2.2 2.3 3.8 2.4 4.2 2.2.4-.2-.3-1.5-1.2-2.9l-.1-.2-.3-.5c-1-1.7-.8-2.5-.5-5 .1-2 3.1-11.4 3.1-11.4l-4.3-.8s-1.3 7.5-2.7 8.6c-.8.6-1.7.6-2.4 1l-.2.2c-.4.3-.8.5-1.2 1Z" fill="#FAB9AF"/>
    <path d="M205.1 214c-.3.3-.3.8-.2 1.2.4.9 1.4 1.8 2.6 2.8a11.7 11.7 0 0 1 .5.5c1.1 1 .7 1.2 2.7 3.3 2.2 2.3 3.8 2.4 4.2 2.2.4-.2-.3-1.5-1.2-2.9a9 9 0 0 1-4-3c-1.3-1.6-2.2-3.8-3.1-5l-.3-.1c-.4.3-.8.5-1.2 1Z" fill="#B24F08"/>
    <path d="M240.1 211.2c.3 1.4 2.2 1.2 4.3.6 2.1-.5 1.6.1 4.7-.2 3-.3 4-1.5 4-2 0-.3-1.4-.5-3-.6l-.6-.1c-1.8-.2-3.2-1.4-4.8-2.4-1.6-.9-3.9-4.6-3.9-4.6l-4.2.3s2.2 3.3 3 4.8c.6.8.5 2 .5 2.8v1.4Z" fill="#FAB9AF"/>
    <path d="M244.4 211.8c2.1-.5 1.6.1 4.7-.2 3-.3 4-1.5 4-2 0-.3-1.4-.5-3-.6 0 0-1.8 1.3-4.4 1.3-2 0-4.2-.5-5.6-.5v1.4c.3 1.4 2.2 1.2 4.3.6Zm-20.2-27.2-4 10.5-5 13.7s-1.4 0-2.7-.3c-1.2-.3-2.6-1.3-2.6-1.3s1.4-14.6 4-23a15 15 0 0 1 2.3-5c4-4.8 8 5.4 8 5.4Z" fill="#B24F08"/>
    <path d="M220.2 168c-2.2-.7-8 0-14.2 1.1a4 4 0 0 1-4.4-2l-15.8-1.2s-5.2 11.6-2.3 19c.4 1 1.3 1.7 2.7 1.7h12.6c7.8 0 16.6-5.4 17.7-5.6 1.9-.4 2.6 3.3 4.5 7.2 1.8 4 17.4 17.3 17.4 17.3s2.4 0 3.4-.4 1.4-.9 1.4-.9-17.2-34.3-23-36.2Z" fill="#DE8342"/>
    <path d="M200 120.9a5.6 5.6 0 0 0-3-.8l-1.5-.1c-6-.9-9.7 7.8-9.9 10.5-.4 4.8-3 5.6-6.6 8.6-7.2 6-5 13.2-1.1 15.8 2.4 1.6 6.5 0 6.5 0l17.1-9.5c8.4-1.1 1.8-22.5-1.6-24.5Z" fill="#C8462D"/>
    <path d="M196.8 142.8s-2.8 1-4.6.2c-1.8-.8-3.1-3.7-3-3.7.7 0 1.6-.7 2.3-5.3l.3.1 5.7 2-.7 3.6c-.2 1.5-.3 3 0 3.1Z" fill="#FAB9AF"/>
    <path d="m197.5 136.2-.5 2.8a6.4 6.4 0 0 1-5.2-4.9l5.7 2Z" fill="#E8945B"/>
    <path d="M198.4 138s-7.8-1-7.1-6c.7-4.8.2-8.2 5.2-7.7 5 .5 5.7 2.5 5.9 4.1.1 1.7-2 9.7-4 9.6Z" fill="#FAB9AF"/>
    <path d="M202 125.8s-5 4.3-8.3 4.6c-3.4.4-4.7-.7-4.7-.7s2-1.7 3.2-4.4c.4-.8 1.1-1.3 2-1.4 2.4-.2 7-.3 7.9 1.9Z" fill="#C8462D"/>
    <path d="M199 125.4s1.6 1.6 2.2 2.8c.5 1.2.6 4 .2 5 0 0 2.6-5 1.1-7.5-1.5-2.6-3.5-.3-3.5-.3Z" fill="#C8462D"/>
    <path d="M203.4 154.3c-.3 15.8-.1 12.5-1.8 14-.4.4-1.6.6-3.2.7-4.8.3-13.3-.5-13.7-1.4-1-3-.3-4-1.2-8.8l-.4-1.6c-.7-3.3-1.5-4.4 1.3-9.6a39 39 0 0 1 5.3-8.5c6.6 4 7.1.6 7.1.6s6.7 7 6.6 14.6Z" fill="#fff"/>
    <path d="m220.3 195.1-5.1 13.7s-1.4 0-2.7-.3c-1.2-.3-2.6-1.3-2.6-1.3s1.4-14.6 4-23l6.4 10.9Z" fill="#DE8342"/>
    <path d="M196.8 139.7s6.8 1.2 7.6 4.1c.8 3 3.4 20.7 3.4 20.7s-1.9 1.9-3.5.3a93 93 0 0 1-5-16.6l-2.5-8.5Z" fill="#fff"/>
    <path d="M198.4 169c-4.8.3-13.3-.5-13.7-1.4-1-3-.3-4-1.2-8.8l2.3-6.6s-.4 7.4 1.8 9.3c2.2 2 8.9 3.7 9.9 5.3a6 6 0 0 1 1 2.2Z" fill="#CBCBCB"/>
    <path d="M192.9 166s4.8-1.1 5.5-.7c.8.4 2.7 2 3 2.5.2.5-1.8-.4-2.4-.6l-2 .5c-2.3.7-3.7.3-3.7.3l-.4-2Z" fill="#FAB9AF"/>
    <path d="M189.7 139.1s-6.4.4-8.7 3.5c-3 4.4-9.3 23-5.7 25.5 4 2.8 18.2.7 18.2.7s.5-2.2-.2-3.3c-.6-1-11.4-2.8-11.8-3.3-.5-.5 6.1-9.6 6.1-11.1s2-12 2-12Z" fill="#fff"/>
    <path d="m198.7 166.6 1.3 1.5h.5l-.6-1.1-1.2-.4Zm-.3-1.3 3 1.4s-.2.2-.5.2c-.4 0-1.3-.4-1.3-.4l-1.2-1.2Z" fill="#FAB9AF"/>
    <path d="M223.3 168.6H193v.7h30l.2-.7Z" fill="#330E00"/>
    <path d="M200 169.3h23l7-17.2h-23l-7 17.2Z" fill="#330E00"/>
    <path d="M217.2 160.7c.2-.6-.1-1.1-.7-1.1-.7 0-1.3.5-1.5 1-.1.7.2 1.2.8 1.2.6 0 1.3-.5 1.4-1.1Z" fill="#fff"/>
    <path d="M373.2 234.3c-3-1-5.2.3-5.2.3-9 .3-9.3 9.5-8.2 13 1.4 4.7-3.8 8.5 2 10.4 6.7 2.3 12.3-.4 12 .8 21.2 1.6 6.5-22.2-.6-24.5Z" fill="#FAC855"/>
    <path d="M364 278.9s-.9 1.7-2.4 3.6c-1.9 2.3-11.6-3.2-10.8-3.6.8-.4 5.7-14.6 6.9-16.3 1.2-1.8 5.1-2.7 5.1-2.7l1.2 19Z" fill="#DE8342"/>
    <path d="M396.9 374s2.6 2.5 2.1 4.2c-.5 1.8-3 3-3.3 5-.3 2.2-1.6 3.4-2.8 3.4h-5.6s-.9-1.5 1.2-2c2.1-.4 2.9-3 2.8-5.3-.2-2.3.2-5.4.2-5.4l4.4-1 1 1.1Zm-22.9 1s1 10.5-.1 11h-15.1s0-1.7 2.4-2c2.4-.5 6.7-1.9 7.4-5 .7-3.2 5.5-4 5.5-4Z" fill="#481907"/>
    <path d="M385.7 271.9s.2 3.1 0 7c-.1 2.5-2.7 5.9-3 6.7-1 2-2 2.4-2 2.4l-8 2-2.7.7-8.8-2.7s-4-11.2-2.4-17.5c1.6-6.3 4-10.6 4-10.6s6-1.4 16.6-.6l6.3 12.6Z" fill="#DE8342"/>
    <path d="M386.5 279c-.2 2.5-3.5 5.8-3.9 6.6-.9 2-1.9 2.4-1.9 2.4l-8 2-1.4-4.1s11.6-3 9.8-13.8l5.4 6.8Z" fill="#B24F08"/>
    <path d="M361.7 289.7s-4.3 13.6-4.6 18.2a1659 1659 0 0 0 8.7 67.8c.3 2 2.8 3.2 2.8 3.2s1.1.7 2.8.2c2.2-.6 3-1.4 3-1.4s3.3-43.5 1.2-59c-2-15.5-2-29-2-29h-11.9Z" fill="#481907"/>
    <path d="M380.2 289.3s6.6 9 7.3 15c.6 6 1 27.2 2.3 33 1.3 6 6.1 17.3 6.1 35.6 0 0-.5 1-2 1.6l-1.8.5c-1.3.3-2.6-.3-3.2-1.5a254.9 254.9 0 0 1-14.3-32.3c-.4-3.2-3.7-23.9-10.9-36-1.7-3 1-14.5 1-14.5l15.5-1.4Z" fill="#69280F"/>
    <path d="M361 287.6s1.8 1.4 5.3 1.5c4.1 0 14.4-1 14.4-1s.5 1.2.4 2.6c0 0-12.5 3.1-19.8.4 0 0-1-1.7-.3-3.5Z" fill="#481907"/>
    <path d="M365.3 289c-.7 0-1.3.7-1.3 1.5 0 .9.6 1.5 1.3 1.5.7 0 1.2-.6 1.2-1.5 0-.8-.5-1.5-1.2-1.5Zm0 3.7c-1 0-2-1-2-2.2 0-1.2 1-2.1 2-2.1s1.9 1 1.9 2.1c0 1.2-.9 2.2-2 2.2Z" fill="#fff"/>
    <path d="m374.3 296.6-18.8.1-9.3-21.8 18.9-.2 9.2 21.9Z" fill="#B5453C"/>
    <path d="m371.9 286.7-1.4-1.7s-1-.8-1.6-1c-.7-.1-2.1-1-2.3-.7-.1.2 1.1 1.9 1.1 1.9-1.3 1-5 .1-5.4.6-.5.5.8 1.6 1.4 2.3.7.6 2.7 1.7 4.2 1.2l3-.7 1-1.9Zm-24.3-7.9s1.2-1.4 2-.8c.7.7-.3 3.9-1 3.6-.7-.4-1.4-2.5-1-2.9Z" fill="#FAB9AF"/>
    <path d="M379.4 259.3s5.4.6 9.3 7.6c3 5.6 8.3 15.8 6.3 18.7-.9 1.3-9.2 5.8-25.2 3.2 0 0 .2-2 1.5-3 0 0 13.5-4.3 13.5-5.1 0-1.6-1.8-3-9.4-10.6-2-2 4-10.8 4-10.8Z" fill="#DE8342"/>
    <path d="M375.2 259.6c.2-.3 0-1-.3-2.6-.3-1.3-.8-3.4-.7-5.7h-.4l-6.7 1.2.1 3.5c0 1.5-.4 3.7.1 4 2.5 1.5 7.2.5 8-.4Z" fill="#FAB9AF"/>
    <path d="m367 252.5.2 4.2c3.7 0 5.7-3.7 6.6-5.3l-6.7 1.1Z" fill="#FA968C"/>
    <path d="M366.6 255.5s8.8-1.2 8-6.7c-.9-5.5-.3-9.3-6-8.7-5.6.5-6.4 2.8-6.5 4.7-.2 1.9 2.2 10.9 4.5 10.7Z" fill="#FAB9AF"/>
    <path d="M364.6 240.6s3.4 6 7.3 6.4c3.8.3 5.2-1 5.2-1s-3.2-1.7-4.4-5.5c0 0-6.8-3.3-8.1 0Z" fill="#FAC855"/>
    <path d="M365.3 241s-1.7 1-2.2 2.4a9 9 0 0 0-.4 5.2s-2.5-4.1-.9-6.9c1.8-3 3.5-.7 3.5-.7Z" fill="#DE8342"/>
    <path d="M559.4 389.3c0 1.7-1.7 2.7-3.4 2.7H74.7c-1.7 0-3.4-1-3.4-2.7v-1.6c0-1.5 1.9-2.7 3.4-2.7H556c1.7 0 3.4 1 3.4 2.7v1.6Z" fill="#260101" fill-opacity=".2"/>
  </g>
  <defs>
    <clipPath id="a">
      <path fill="#fff" d="M0 0h630v420H0z"/>
    </clipPath>
  </defs>
</svg>
